# xmcd
#
# Track frame offsets:
#	150
#	10265
#	19497
#	29879
#	40816
#	51302
#	61521
#	69582
#	79693
#	88292
#	101026
#	112236
#	124230
#	133614
#	147411
#	158740
#	171836
#	181828
#	192352
#	208506
#	216879
#	234557
#	256266
#	267112
#	287050
#
# Disc length: 3969 seconds
#
# Revision: 1
# Processed by: cddbd v1.5.2PL0 Copyright (c) Steve Scherf et al.
# Submitted via: audiograbber 1.83.01
#
DISCID=780f7f19
DTITLE=Johnny Cash and June Carter - Country Lovers CD 1
DYEAR=2014
DGENRE=Country
TTITLE0=All Over Again
TTITLE1=Blue Train
TTITLE2=Jukebox Blues
TTITLE3=(I Heard That) Lonesome Whistle
TTITLE4=Bonanza
TTITLE5=Honey Look What You've Done
TTITLE6=Five Feet High And Rising
TTITLE7=Get Rhythm
TTITLE8=I Got Stripes (Live)
TTITLE9=She Loves To Cry
TTITLE10=Cry Cry Cry
TTITLE11=I Still Miss Someone (Live)
TTITLE12=I'll Remember You 
TTITLE13=Dont Take Your Guns To Town
TTITLE14=Seasons Of My Heart
TTITLE15=Country Girl
TTITLE16=Hey Porter
TTITLE17=Bald Headed End Of The Broom
TTITLE18=A Boy Named Sue (Live)
TTITLE19=Guess Things Happen That Way
TTITLE20=Boss Jack
TTITLE21=Dorraine Of Ponchartrain
TTITLE22=For Cryin' Out loud
TTITLE23=Going To Memphis
TTITLE24=Music Music Music
EXTD=
EXTT0=Johnny Cash
EXTT1=Johnny Cash
EXTT2=June Carter
EXTT3=Johnny Cash
EXTT4=Johnny Cash
EXTT5=June Carter
EXTT6=Johnny Cash
EXTT7=Johnny Cash
EXTT8=Johnny Cash
EXTT9=June Carter
EXTT10=Johnny Cash
EXTT11=Johnny Cash
EXTT12=Johnny Cash
EXTT13=Johnny Cash
EXTT14=Johnny Cash
EXTT15=June Carter
EXTT16=Johnny Cash
EXTT17=June Carter
EXTT18=Johnny Cash
EXTT19=Johnny Cash
EXTT20=Johnny Cash
EXTT21=Johnny Cash
EXTT22=Johnny Cash
EXTT23=Johnny Cash
EXTT24=June Carter
PLAYORDER=
